<svg width="100" height="50" viewBox="0 0 100 50" fill="none" xmlns="http://www.w3.org/2000/svg">
<path fill-rule="evenodd" clip-rule="evenodd" d="M74.5875 0.000366211H25.4167C11.4 0.000366211 0 11.217 0 25.0004C0 38.7837 11.4 50.0004 25.4125 50.0004H74.5833C88.6 50.0004 100 38.7837 100 25.0004C100 11.217 88.6 0.000366211 74.5875 0.000366211ZM50.3333 39.1962C49.5208 39.3629 48.6083 39.392 47.9917 38.7545C47.8042 39.1712 47.425 39.0754 47.0708 38.9879C46.9869 38.9651 46.9021 38.9456 46.8167 38.9295C46.775 39.0337 46.7458 39.1295 46.7083 39.2337C45.3375 39.3212 44.3125 37.9462 43.6583 36.9087C43.017 36.5831 42.3591 36.2911 41.6875 36.0337C40.9708 35.742 40.25 35.4504 39.5667 35.0754C39.5517 35.3153 39.5462 35.5558 39.55 35.7962C39.5417 36.8129 39.5333 37.892 38.6042 38.5087C38.575 39.7379 39.5875 39.7254 40.5875 39.717C41.45 39.7045 42.2958 39.6962 42.45 40.4837C42.3808 40.4914 42.3113 40.4956 42.2417 40.4962C42.05 40.4962 41.8583 40.4962 41.7125 40.6379C41.225 41.1004 40.7042 40.9004 40.1625 40.692C39.6625 40.5004 39.15 40.3004 38.6333 40.6087C38.2558 40.7985 37.8911 41.0128 37.5417 41.2504C36.8811 41.7469 36.0842 42.029 35.2583 42.0587C35.1583 41.9087 35.2 41.8129 35.2833 41.7254C35.3479 41.6514 35.4077 41.5735 35.4625 41.492C35.5417 41.3754 35.6083 41.2545 35.675 41.142C35.9 40.7462 36.1042 40.392 36.6833 40.2254C35.9125 40.1045 35.25 40.4545 34.6 40.7962L34.5833 40.8045C34.4935 40.8525 34.4032 40.8998 34.3125 40.9462C33.9083 41.1129 33.6708 40.9837 33.4292 40.8504C33.0875 40.6629 32.7292 40.467 31.8625 41.017C31.6958 40.8837 31.7792 40.7629 31.8708 40.6587C32.25 40.2045 32.7458 40.1379 33.3083 40.1629C31.8458 39.3587 30.7917 39.9295 29.9333 40.392C29.175 40.8004 28.5708 41.1254 27.9708 40.342C27.7 40.4129 27.5458 40.6045 27.3958 40.792C27.3333 40.8754 27.2708 40.9504 27.2 41.0212C27.0542 40.8587 27.0875 40.6754 27.125 40.4879L27.1458 40.3795C27.1526 40.3382 27.1568 40.2964 27.1583 40.2545L27.0458 40.2129C26.825 40.1212 26.6083 40.0295 26.6708 39.6962C26.1833 39.5295 25.8375 39.8212 25.4792 40.0879C25.2542 39.917 25.4375 39.692 25.6125 39.4837C25.6875 39.4028 25.7507 39.3116 25.8 39.2129C25.9583 38.942 26.2292 38.9337 26.4917 38.9254C26.7167 38.9212 26.9417 38.9129 27.0958 38.7504C27.65 38.4379 28.3333 38.6004 29.0208 38.7629C29.525 38.8795 30.0292 39.0004 30.4958 38.9379C31.3417 39.042 32.3875 38.1879 31.9625 37.3337C31.1875 36.3629 31.1958 35.1337 31.2 33.9462V33.3504C31.1333 32.9004 30.4833 32.3795 29.8333 31.8587C29.3333 31.4629 28.8333 31.0629 28.5917 30.692C27.925 29.9545 27.4042 29.1004 26.8875 28.2545L26.825 28.1545C25.9417 26.4712 25.5875 24.5712 25.2333 22.6754C24.8042 20.4004 24.3792 18.1337 23.0417 16.2587C21.9333 16.8587 20.4917 16.5712 19.5375 15.767C19.0375 16.2129 18.9958 16.7962 18.9625 17.417L18.9583 17.4754C17.7208 16.2587 17.875 13.9587 18.8625 12.6004C19.2667 12.067 19.75 11.6295 20.2875 11.242C20.4125 11.1545 20.4542 11.067 20.45 10.9337C21.4292 6.60036 28.1 7.43787 30.2083 10.5045C30.9042 11.3629 31.3792 12.3462 31.8542 13.3295C32.425 14.5087 32.9917 15.6879 33.9375 16.642C34.8542 17.6295 35.8208 18.5712 36.7875 19.5129C38.2833 20.9712 39.7792 22.4254 41.0875 24.0504C43.1292 26.4962 44.5833 29.367 45.8542 32.2587C46.0625 32.642 46.1875 33.0629 46.3125 33.4795C46.4958 34.1045 46.6833 34.7254 47.1458 35.217C47.2542 35.3629 47.4958 35.5837 47.7667 35.8337C48.4167 36.4295 49.2542 37.2004 48.9708 37.5379C49.0083 37.617 49.0833 37.7045 49.1792 37.7879C49.3125 37.9045 49.4875 38.0295 49.6625 38.1545C50.1708 38.517 50.7083 38.8962 50.3333 39.1962ZM82.7417 24.4254L78.9833 28.1212C77.9833 29.1087 76.7458 29.842 75.4042 30.2462L75.3333 30.267L75.3083 30.3295C74.8739 31.4614 74.2002 32.4862 73.3333 33.3337L69.575 37.0337C67.9375 38.6462 65.7583 39.5337 63.4333 39.5337C61.1125 39.5337 58.9333 38.6462 57.2917 37.0337C56.4879 36.2462 55.8493 35.3061 55.4134 34.2687C54.9775 33.2313 54.7529 32.1173 54.7529 30.992C54.7529 29.8667 54.9775 28.7528 55.4134 27.7153C55.8493 26.6779 56.4879 25.7379 57.2917 24.9504L61.05 21.2504C62.0583 20.2587 63.2625 19.5462 64.6292 19.1337L64.6958 19.117L64.7208 19.0504C65.1583 17.917 65.825 16.9004 66.7 16.0337L70.4583 12.3379C72.0958 10.7254 74.2792 9.83787 76.6 9.83787C78.925 9.83787 81.1 10.7254 82.7417 12.3379C84.3833 13.9504 85.2833 16.0962 85.2833 18.3795C85.2833 20.667 84.3833 22.8129 82.7417 24.4212V24.4254Z" fill="white"/>
</svg>
