<svg xmlns="http://www.w3.org/2000/svg" viewBox="0 0 25.6 25.6">
  <path d="M12.8.2C5.9.2.3 5.8.3 12.8s5.6 12.6 12.5 12.6 12.5-5.6 12.5-12.6S19.7.2 12.8.2z" fill="#336791"/>
  <path d="M19.4 15.2c-.2-1.3.2-1.8.9-2.6-1.2.2-1.7-.3-2-1.1.4-1.4.3-2.7-.4-3.7-1.6-2.3-5.8-2.1-8.2.1-.8.7-1.3 1.6-1.4 2.5-.1 0-.2 0-.3.1-.7.4-1 1.3-.8 2.8.2 1.5.5 3 1 4.2.4.8.7 1.2 1.2 1.2.3 0 .5-.1.8-.4.4.4.9.6 1.4.5.4-.1.7-.4.9-.8l.1.1c.8.6 1.4.8 2 .6.4-.1.7-.4.9-.8 0 0 0-.1.1-.1.5.3 1.2.4 1.7-.1.4-.4.5-1 .3-1.6l1.2-.1c.4 0 .7-.2.7-.4 0-.1-.1-.3-.1-.4z" fill="white"/>
</svg>
