<svg xmlns="http://www.w3.org/2000/svg" viewBox="0 0 24 24" fill="none">
  <path d="M20.2 11.1c-.1-.7-.5-1.2-1.1-1.5.3-.6.3-1.3-.1-1.9-.4-.6-1-1-1.7-1-.1-.7-.5-1.3-1.1-1.6-.6-.4-1.3-.4-1.9-.1-.3-.6-.8-1-1.5-1.1-.7-.1-1.3.1-1.8.6-.5-.4-1.2-.6-1.8-.4-.7.1-1.2.6-1.4 1.2-.7-.2-1.4 0-1.9.4-.5.5-.7 1.2-.6 1.8-.7.2-1.2.7-1.4 1.3-.2.6-.1 1.3.3 1.9-.5.4-.8 1-.8 1.7 0 .7.3 1.3.8 1.7-.4.5-.5 1.2-.3 1.9.2.6.7 1.1 1.4 1.3-.1.7.1 1.3.6 1.8.5.5 1.2.6 1.9.4.2.6.7 1.1 1.4 1.2.6.2 1.3 0 1.8-.4.5.4 1.1.7 1.8.6.7-.1 1.2-.5 1.5-1.1.6.3 1.3.3 1.9-.1.6-.4 1-.9 1.1-1.6.7 0 1.3-.3 1.7-1 .4-.6.4-1.3.1-1.9.6-.3 1-1 1.1-1.5.1-.8-.2-1.4-.7-1.9z" fill="#ff6600"/>
  <circle cx="12" cy="12" r="3.5" fill="white"/>
</svg>
